<svg xmlns:dc="http://purl.org/dc/elements/1.1/" xmlns:cc="http://creativecommons.org/ns#" xmlns:rdf="http://www.w3.org/1999/02/22-rdf-syntax-ns#" xmlns:svg="http://www.w3.org/2000/svg" xmlns="http://www.w3.org/2000/svg" xmlns:sodipodi="http://sodipodi.sourceforge.net/DTD/sodipodi-0.dtd" xmlns:inkscape="http://www.inkscape.org/namespaces/inkscape" width="295.62708mm" height="190.04663mm" viewBox="0 0 295.62708 190.04663" version="1.1" id="svg2384" inkscape:version="1.0rc1 (09960d6f05, 2020-04-09)" sodipodi:docname="Coronary_arteries_en.svg">
  <defs id="defs2378">
    <marker inkscape:stockid="DotM" orient="auto" refY="0" refX="0" id="DotM" style="overflow:visible">
      <path id="path4183" d="m -2.5,-1 c 0,2.76 -2.24,5 -5,5 -2.76,0 -5,-2.24 -5,-5 0,-2.76 2.24,-5 5,-5 2.76,0 5,2.24 5,5 z" style="fill-rule:evenodd;stroke:#000000;stroke-width:1pt" transform="matrix(0.4,0,0,0.4,2.96,0.4)" inkscape:connector-curvature="0"/>
    </marker>
  </defs>
  <metadata id="metadata2381">
    <rdf:RDF>
      <cc:Work rdf:about="">
        <dc:format>image/svg+xml</dc:format>
        <dc:type rdf:resource="http://purl.org/dc/dcmitype/StillImage"/>
        <dc:title/>
      </cc:Work>
    </rdf:RDF>
  </metadata>
  <g sodipodi:insensitive="true" inkscape:label="Heart" inkscape:groupmode="layer" id="layer1" transform="translate(0.88824391,0.1322915)">
    <path sodipodi:nodetypes="cccccccccccccccsssssssc" style="display:inline;fill:#eaceb7;stroke-width:0.264583" inkscape:connector-curvature="0" id="path999" d="m 99.337481,44.745199 c -2.769262,7.514218 -7.084742,14.612922 -11.324172,21.151586 -1.17131,1.82377 -2.44052,3.00911 -2.92867,4.55877 -3.07243,5.495685 -6.0344,12.931821 -7.12629,17.961242 -0.39053,1.914 -0.48789,3.73777 -0.97631,4.83182 -2.09674,4.760712 -2.72271,9.673493 -2.05,14.861123 0.0976,0.63817 -0.58578,2.00607 -0.87868,3.19114 -0.29263,1.18533 -1.26894,5.37951 -1.07394,8.02269 4.11548,21.53251 4.6291,22.3781 19.3294,33.09567 5.77858,6.45746 22.976151,15.71414 30.062431,18.61274 14.32386,3.7623 31.60396,6.46112 48.34806,8.66851 30.60853,4.00723 57.00715,1.91554 29.46691,-76.08622 -1.01665,-3.15988 -1.76306,-6.262763 -2.15385,-7.630123 -0.39079,-1.3679 -2.34288,-5.28796 -3.90498,-7.29351 -1.5621,-2.00607 -5.78259,-7.015615 -5.78259,-7.015615 0.0488,-3.541453 -4.33916,-7.580956 -8.0293,-12.61173 -1.55447,-2.1192 -2.10581,-5.116212 -3.61942,-7.426555 -0.85453,-1.304336 -2.10232,-1.770762 -2.92321,-3.134535 -1.18061,-1.96138 -3.27503,-3.254021 -4.73604,-5.029935 -0.86905,-1.056358 -0.55,-2.598625 -1.30707,-3.697893 -0.89173,-1.294799 -2.8623,-2.130293 -3.97954,-3.100587 -2.46475,-2.140565 -2.42372,-5.955626 -5.13747,-7.106887 -24.50153,-10.394349 -55.97414,1.433543 -59.275269,5.178299 z"/>
    <path d="m 124.32218,-47.605157 h -24.0149 c 0.0194,9.309047 1.18834,18.917266 1.17131,27.442848 0.0892,13.0438622 -1.647474,26.5098686 -2.342654,37.653913 0.0202,9.119244 -0.56935,18.339951 0.39053,27.442583 6.900854,7.904344 13.179404,20.983544 31.517984,-9.310209 11.56953,1.558145 18.54156,2.573966 27.66896,4.220559 3.65916,-5.427861 6.73444,-8.50952 11.3468,-8.534843 9.69331,1.307764 19.55942,8.023275 26.30589,13.260162 0,0 3.12394,-0.820473 4.58814,-2.279121 1.46421,-1.458648 3.70734,-4.782344 4.09999,-6.290998 0.87868,-3.373437 -0.7756,-4.619014 -0.7756,-4.619014 -6.03584,-4.26609 -12.09873,-8.504041 -18.30549,-12.518839 3.50917,-1.752278 13.20237,-2.633409 15.62087,-4.655876 0.57561,-0.518321 0.90037,-1.705504 0.99801,-2.708275 0.0976,-1.002771 -0.56383,-3.3964557 -1.24752,-4.2171937 -0.68315,-0.820737 -1.14114,-1.938337 -1.53167,-2.029354 -0.39079,-0.09102 -1.10463,-0.497681 -1.10463,-0.497681 l -1.65868,0.521494 -3.90472,1.823508 c -4.0942,1.7258247 -16.99879,5.4486317 -27.7944,4.7535177 -8.02359,-2.3554103 -18.31667,-2.7126332 -26.97116,2.092505 -6.99595,3.884287 -11.57627,-2.077418 -13.47006,-3.258915 2.34013,2.952333 -1.4642,-15.0593662 -1.65973,-16.7915932 -5.67985,-4.3303128 43.10536,-20.8042848 47.63754,-19.8914498 1.09332,0.220209 1.07395,-1.458913 1.07395,-1.458913 0,0 7.32155,-3.099858 8.39549,-3.647017 1.07394,-0.547158 1.6428,-1.037695 2.28494,-1.861873 0.78105,-1.003035 -0.0394,-4.246562 -0.43021,-5.340614 -0.39026,-1.094052 -1.65946,-2.826279 -2.34262,-3.920331 -1.41631,-2.26748 -2.83104,-2.279386 -3.70972,-2.188105 -0.87869,0.09102 0,-3.008841 0,-3.008841 h -24.01517 l -3.31893,12.217135 c 0,0 -10.83601,2.188104 -13.27652,3.008577 -2.44052,0.820738 -8.10261,2.826544 -8.10261,2.826544 0,0 -0.29289,0.182298 -0.68342,-1.185069 -0.39052,-1.367366 -1.65973,-7.020189 -1.85499,-10.028766 -0.19844,-3.005667 -0.59002,-7.01675 -0.59002,-7.01675 z" id="path1022" inkscape:connector-curvature="0" style="display:inline;fill:#e3d7f4;stroke-width:0.264583" sodipodi:nodetypes="cccccccccsccccsccccccsccscscccccccccsccc"/>
    
    <path d="m 115.08331,-47.579757 h 8.59075 c 0,0 0.39026,5.74384 0.68342,7.65863 0.29263,1.914525 1.65947,9.025995 1.85473,9.846468 0.19526,0.820738 0.19526,0.820738 0.39053,0.729457 0.19526,-0.09102 -4.68577,1.823508 -5.95498,2.735262 -1.26894,0.911755 -3.61209,2.188105 -3.61209,2.188105 0,0 -0.87868,-2.188105 -1.36684,-3.647017 -0.48789,-1.458913 -0.68342,-4.193911 -0.87868,-6.38228 -0.19526,-2.188104 0.0976,-7.111206 0.0976,-8.570118 0,-1.458913 0.19579,-4.558507 0.19579,-4.558507 z" id="path14" inkscape:connector-curvature="0" style="font-variation-settings:normal;display:inline;opacity:1;vector-effect:none;fill:#f4a8b4;fill-opacity:1;stroke:none;stroke-width:0.264583;stroke-linecap:butt;stroke-linejoin:miter;stroke-miterlimit:4;stroke-dasharray:none;stroke-dashoffset:0;stroke-opacity:1;stop-color:#000000;stop-opacity:1"/>
    <path d="m 148.17739,-35.180323 3.41683,-12.217136 h 24.0149 l -0.39052,3.008842 c 0,0 -3.12394,0.638175 -6.05235,1.823508 -2.92841,1.185334 -7.5168,3.099859 -10.25048,4.10263 -2.7305,1.00277 -10.73679,3.282156 -10.73679,3.282156 z" id="path16" inkscape:connector-curvature="0" style="font-variation-settings:normal;display:inline;opacity:1;vector-effect:none;fill:#f4a8b4;fill-opacity:1;stroke:none;stroke-width:0.264583;stroke-linecap:butt;stroke-linejoin:miter;stroke-miterlimit:4;stroke-dasharray:none;stroke-dashoffset:0;stroke-opacity:1;stop-color:#000000;stop-opacity:1"/>
    <path d="m 185.95724,19.159537 c 2.64048,-1.061476 7.13828,-2.894954 9.80969,-2.953279 -0.25126,3.38863 0.41568,6.311569 0.44053,9.973204 -2.15442,-2.523635 -9.80511,-4.351538 -10.24969,-7.019396 z" id="path18" inkscape:connector-curvature="0" style="font-variation-settings:normal;display:inline;opacity:1;vector-effect:none;fill:#f4a8b4;fill-opacity:0.626984;stroke:none;stroke-width:0.264583;stroke-linecap:butt;stroke-linejoin:miter;stroke-miterlimit:4;stroke-dasharray:none;stroke-dashoffset:0;stroke-opacity:1;stop-color:#000000;stop-opacity:1" sodipodi:nodetypes="ccccc"/>
    <path d="m 99.269161,47.057204 c 0,0 -0.390261,-0.729192 -0.585788,-3.647017 -0.195262,-2.917825 0,-7.840662 -0.195262,-12.581731 -0.195263,-4.740804 0,-8.570119 0,-12.581731 0,-4.011613 0.976048,-10.7584877 1.366573,-15.4992917 0.390526,-4.740804 0.390526,-10.2113289 0.585786,-14.2229423 0.19526,-4.011612 0.58579,-11.30538 0.58579,-13.85808 0,-2.552965 -1.171311,-10.393628 -1.171311,-12.581732 0,-2.188104 -0.195263,-9.664171 -0.195263,-9.664171 h 24.014904 c 0,0 0.39026,4.923367 0.58579,7.293769 0.19526,2.370402 0.78105,5.288227 1.17158,6.746875 0.39026,1.458912 0.97604,3.829314 0.97604,3.829314" id="path26" inkscape:connector-curvature="0" style="font-variation-settings:normal;display:inline;opacity:1;vector-effect:none;fill:none;fill-opacity:1;stroke:#aa0000;stroke-width:0.794;stroke-linecap:butt;stroke-linejoin:miter;stroke-miterlimit:4;stroke-dasharray:none;stroke-dashoffset:0;stroke-opacity:1;stop-color:#000000;stop-opacity:1"/>
    <path d="m 115.08331,-30.621817 c 0,0 0.58579,3.464719 0.97631,4.923367 0.39053,1.458913 -0.34184,2.142596 -0.34184,2.142596 l 1.80604,-1.367367 c 0,0 -1.4642,-2.051579 -2.05025,-3.510227 -0.58579,-1.458913 -0.78105,-5.652823 -0.78105,-8.934979 0,-3.282157 0.39052,-10.21133 0.39052,-10.21133" id="path28" inkscape:connector-curvature="0" style="display:inline;fill:#333333;stroke-width:0.264583"/>
    <path d="m 115.08331,-30.621817 c 0,0 0.58579,3.464719 0.97631,4.923367 0.39053,1.458913 -0.34184,2.142596 -0.34184,2.142596 l 1.80604,-1.367367 c 0,0 -1.4642,-2.051579 -2.05025,-3.510227 -0.58579,-1.458913 -0.78105,-5.652823 -0.78105,-8.934979 0,-3.282157 0.39052,-10.21133 0.39052,-10.21133" id="path30" inkscape:connector-curvature="0" style="display:inline;fill:none;stroke:#333333;stroke-width:0.56605;stroke-linecap:round;stroke-linejoin:round"/>
    <polyline points="296.54,57.042 308.716,12.246 399.48,12.246 398.005,22.584" id="polyline32" transform="matrix(0.26458333,0,0,0.26458333,69.913642,-50.637546)" style="display:inline;fill:none;stroke:#333333;stroke-width:3.2091;stroke-linecap:round"/>
    <line x1="164.18787" x2="162.52841" y1="-47.397465" y2="-39.864769" id="line34" style="display:inline;fill:none;stroke:#333333;stroke-width:0.6604;stroke-linecap:round"/>
    <path d="m 109.76518,-17.993255 c 1.09353,-0.909637 1.50284,-2.281237 2.66542,-3.157008 2.00765,-1.512093 3.58827,-3.076045 5.75997,-4.46061 2.30823,-1.471613 4.54105,-2.530475 7.01543,-3.4671 3.31735,-1.255448 6.39498,-2.729177 9.93987,-3.596746 3.14775,-0.769938 6.19442,-1.284552 9.2747,-2.003425 0.53208,-0.12409 1.78276,-0.270669 2.22859,-0.410633 2.68287,-0.840582 4.54766,-1.394884 7.27154,-2.1336 4.45876,-1.209146 8.56642,-2.758282 12.69153,-4.691063 1.26365,-0.592137 2.02565,-0.842169 3.34883,-1.308629 0.71967,-0.254 1.77668,-0.696648 2.10847,-0.782373 3.24828,-0.839258 4.52384,-1.3462 6.42117,0.391319 -0.35428,-0.324379 -1.36578,-0.694531 -2.15821,-0.783961 -2.15318,-0.242887 -4.20079,1.008857 -6.21718,1.657615 -0.54927,0.176742 -1.04246,0.557477 -1.59914,0.711465 -0.75565,0.20902 -1.4142,0.564356 -2.09179,0.860954 -1.16364,0.509323 -2.30453,1.048543 -3.48536,1.494896 -3.89122,1.471083 -7.6454,2.979737 -11.68929,4.157662 -3.00143,0.874183 -5.52661,1.4097 -8.60107,2.146565 -0.97155,0.232833 -2.13254,0.446881 -3.10833,0.604043 -1.45547,0.234421 -3.05461,0.752211 -4.57861,1.122627 -2.69452,0.655373 -5.31045,1.627188 -7.99306,2.492111 -2.86809,0.924983 -5.42687,2.195248 -8.05736,3.817938 -0.30348,0.187325 -0.62759,0.333639 -0.9181,0.534194 -1.54014,1.062037 -3.0152,1.916112 -4.37886,3.106737 -1.2491,1.090877 -2.40559,2.18731 -3.55573,3.331897" id="path36" inkscape:connector-curvature="0" style="display:inline;fill:#333333;stroke-width:0.264583"/>
    <path d="m 181.07568,-39.738829 c 0.91281,1.762389 2.14789,6.290997 0.58605,7.202752 -1.5621,0.911754 -3.41656,0 -5.27156,-4.10263 -1.85473,-4.102629 -2.14762,-7.202752 -1.17157,-7.749645 0.97366,-0.547423 2.97656,-0.912019 5.85523,4.649523 z" id="path38" inkscape:connector-curvature="0" style="font-variation-settings:normal;display:inline;opacity:1;vector-effect:none;fill:none;fill-opacity:1;stroke:#aa0000;stroke-width:0.396875;stroke-linecap:butt;stroke-linejoin:miter;stroke-miterlimit:4;stroke-dasharray:none;stroke-dashoffset:0;stroke-opacity:1;stop-color:#000000;stop-opacity:1"/>
    <path d="m 197.03182,10.282584 c -1.03251,-2.4376247 -0.79823,-4.8809747 0.52286,-5.4538037 1.3211,-0.572828 3.23111,0.94051 4.26362,3.378134 1.03251,2.4376247 0.79824,4.8809747 -0.52286,5.4534857 -1.3211,0.575691 -3.22935,-0.938281 -4.26274,-3.377816 z" id="path44" inkscape:connector-curvature="0" style="font-variation-settings:normal;display:inline;opacity:1;vector-effect:none;fill:none;fill-opacity:1;stroke:#aa0000;stroke-width:0.458362;stroke-linecap:butt;stroke-linejoin:miter;stroke-miterlimit:4;stroke-dasharray:none;stroke-dashoffset:0;stroke-opacity:1;stop-color:#000000;stop-opacity:1"/>
    <path d="m 198.22374,9.7736873 c -0.66642,-1.572498 -0.67082,-3.081383 -0.0103,-3.367956 0.66055,-0.286575 1.73739,0.756987 2.4038,2.329802 0.66643,1.5728127 0.67083,3.0813797 0.0103,3.3679557 -0.66055,0.286572 -1.73797,-0.756989 -2.4044,-2.3282117 z" id="path46" inkscape:connector-curvature="0" style="display:inline;fill:none;stroke:#333333;stroke-width:0.43584;stroke-linecap:round"/>
    <path d="m 198.48209,6.5517213 c 0.66114,-0.286573 1.64873,0.808831 2.24117,2.412497 0.37372,1.012074 0.69783,2.7528247 0.0373,3.0393977 -0.66113,0.286573 -1.60175,-0.510169 -2.26817,-2.0836227 -0.66642,-1.571225 -0.66936,-3.078837 -0.009,-3.368272 z" id="path48" inkscape:connector-curvature="0" style="font-variation-settings:normal;display:inline;opacity:1;vector-effect:none;fill:#a575ff;fill-opacity:1;stroke:#aa0000;stroke-width:0.653746;stroke-linecap:round;stroke-linejoin:miter;stroke-miterlimit:4;stroke-dasharray:none;stroke-dashoffset:0;stroke-opacity:1;stop-color:#000000;stop-opacity:1"/>
    <path d="m 204.09178,32.444266 c 1.58671,1.049338 0.4834,4.963054 -1.74122,7.897813 -2.22488,2.935023 -6.04705,5.010679 -7.63429,3.961606 -1.58671,-1.049337 -1.48696,-3.900752 1.74149,-7.852304 3.28348,-4.019021 6.04837,-5.056188 7.63323,-4.005792 z" id="path54" inkscape:connector-curvature="0" style="font-variation-settings:normal;display:inline;opacity:1;vector-effect:none;fill:none;fill-opacity:1;stroke:#aa0000;stroke-width:0.396875;stroke-linecap:butt;stroke-linejoin:miter;stroke-miterlimit:4;stroke-dasharray:none;stroke-dashoffset:0;stroke-opacity:1;stop-color:#000000;stop-opacity:1"/>
    <path d="m 202.64451,34.933995 c 0.78132,0.569384 -0.0685,2.942696 -1.89812,5.132388 -1.82959,2.189162 -3.94626,3.502025 -4.72758,2.932642 -0.78131,-0.569648 0.0685,-2.806171 1.89813,-4.995598 1.83091,-2.19075 3.94758,-3.640667 4.7281,-3.069167 z" id="path56" inkscape:connector-curvature="0" style="display:inline;fill:none;stroke:#333333;stroke-width:0.56605;stroke-linecap:round"/>
    <path d="m 202.8403,34.431287 c 0.78132,0.569648 -0.16616,3.262048 -1.99549,5.451211 -1.82932,2.189427 -4.04362,3.684852 -4.8252,3.114939 -0.78131,-0.569648 0.26326,-3.44461 2.09312,-5.633773 1.82827,-2.188104 3.94493,-3.500437 4.7281,-2.931583 z" id="path58" inkscape:connector-curvature="0" style="display:inline;fill:#a575ff;fill-opacity:1;stroke:#aa0000;stroke-width:0.56605;stroke-linecap:round"/>
    
    <ellipse cx="181.28809" cy="23.64827" rx="1.7989092" ry="3.6314211" transform="rotate(-19.542055)" id="ellipse126" style="font-variation-settings:normal;display:inline;opacity:1;vector-effect:none;fill:#a575ff;fill-opacity:1;stroke:#aa0000;stroke-width:0.56605;stroke-linecap:round;stroke-linejoin:miter;stroke-miterlimit:4;stroke-dasharray:none;stroke-dashoffset:0;stroke-opacity:1;stop-color:#000000;stop-opacity:1"/>
    
    
    <path d="m 193.71135,43.874927 2.24525,1.003036 c -0.94606,13.457047 -3.40505,26.489201 -5.56498,39.751534 0,0 -2.63578,-3.191412 -2.92814,-4.376212 -1.25159,-4.160455 -2.63728,-4.935709 -7.03677,-10.824709 -0.87868,0.27331 -1.74898,-3.671281 -1.74898,-3.671281 0,0 -1.26895,-2.55297 -1.95236,-3.7383 -0.68369,-1.18507 -3.22157,-2.5527 -3.5142,-3.19088 -0.77332,-1.929404 -4.17233,-3.50045 -3.66148,-4.299602 -1.11696,-1.004997 -0.97523,-1.259469 -2.17664,-4.85757 -0.39079,0.364332 0.35961,-2.260371 0.35961,-2.260371 l 1.0856,-7.728761 0.96427,-8.18582 c 7.28078,-0.630238 18.6756,8.206609 23.92882,12.378936 z" id="path10" inkscape:connector-curvature="0" style="font-variation-settings:normal;display:inline;opacity:1;vector-effect:none;fill:#f4a8b4;fill-opacity:0.626984;stroke:none;stroke-width:0.264583;stroke-linecap:butt;stroke-linejoin:miter;stroke-miterlimit:4;stroke-dasharray:none;stroke-dashoffset:0;stroke-opacity:1;stop-color:#000000;stop-opacity:1" sodipodi:nodetypes="cccccccccccccc"/>
    
    
    
    <path style="font-variation-settings:normal;display:inline;opacity:1;vector-effect:none;fill:#eaceb7;fill-opacity:0.564987;fill-rule:evenodd;stroke:#aa0000;stroke-width:0.79375;stroke-linecap:butt;stroke-linejoin:miter;stroke-miterlimit:4;stroke-dasharray:none;stroke-dashoffset:0;stroke-opacity:1;stop-color:#000000;stop-opacity:1" d="m 190.36761,84.137535 c 2.11096,-12.196132 4.15376,-24.562652 5.22552,-39.356769" id="path1190" inkscape:connector-curvature="0" sodipodi:nodetypes="cc"/>
    <path style="font-variation-settings:normal;display:inline;opacity:1;vector-effect:none;fill:none;fill-opacity:1;fill-rule:evenodd;stroke:#aa0000;stroke-width:0.79375;stroke-linecap:butt;stroke-linejoin:miter;stroke-miterlimit:4;stroke-dasharray:none;stroke-dashoffset:0;stroke-opacity:1;stop-color:#000000;stop-opacity:1" d="m 196.28864,26.259933 c 0.30339,-3.819158 0.16876,-6.748733 -0.74365,-10.081565" id="path1206" inkscape:connector-curvature="0" sodipodi:nodetypes="cc"/>
    <path inkscape:connector-curvature="0" id="path1222" d="m 192.21144,6.6203223 c -7.3132,-17.1333513 -15.07026,-19.0640653 -21.37132,-23.2263483 -4.84775,-0.923152 -8.85795,-3.31199 -12.71951,-5.960958" style="font-variation-settings:normal;display:inline;opacity:1;vector-effect:none;fill:none;fill-opacity:1;fill-rule:evenodd;stroke:#aa0000;stroke-width:0.79375;stroke-linecap:butt;stroke-linejoin:miter;stroke-miterlimit:4;stroke-dasharray:none;stroke-dashoffset:0;stroke-opacity:1;stop-color:#000000;stop-opacity:1" sodipodi:nodetypes="ccc"/>
    <path style="font-variation-settings:normal;display:inline;opacity:1;vector-effect:none;fill:none;fill-opacity:1;fill-rule:evenodd;stroke:#aa0000;stroke-width:0.79375;stroke-linecap:butt;stroke-linejoin:miter;stroke-miterlimit:4;stroke-dasharray:none;stroke-dashoffset:0;stroke-opacity:1;stop-color:#000000;stop-opacity:1" d="m 170.88333,-16.29804 c -1.87556,-3.279553 -0.87429,-7.339658 -0.13424,-10.384896" id="path1224" inkscape:connector-curvature="0" sodipodi:nodetypes="cc"/>
    <path style="font-variation-settings:normal;display:inline;opacity:1;vector-effect:none;fill:none;fill-opacity:1;fill-rule:evenodd;stroke:#aa0000;stroke-width:0.79375;stroke-linecap:butt;stroke-linejoin:miter;stroke-miterlimit:4;stroke-dasharray:none;stroke-dashoffset:0;stroke-opacity:1;stop-color:#000000;stop-opacity:1" d="m 104.37804,45.442224 c -9.271246,-41.1987757 25.37418,-65.335907 48.51079,-66.849426 10.01937,-0.655434 19.11062,-6.780345 28.08608,-10.607345" id="path1226" inkscape:connector-curvature="0" sodipodi:nodetypes="csc"/>
    
    <path sodipodi:nodetypes="cccccccccccccc" d="m 109.19603,58.468149 c -0.98583,-1.973 -4.91505,-13.964704 -5.11032,-15.149508 -5.225833,-39.0274642 20.80022,-60.82687 50.56744,-65.279322 3.36814,-0.820738 6.83365,-1.777735 8.68811,-2.41591 1.85473,-0.63844 4.29498,-1.595438 5.36919,-1.914525 1.07368,-0.319353 1.80552,-0.729457 1.80552,-0.729457 0,0 -0.63447,2.461948 -0.68342,3.966104 -0.0489,1.504157 -0.0976,3.555735 0.29263,4.512998 0.39052,0.957527 0.78079,2.279385 1.95262,2.826544 11.24387,5.170002 15.79828,11.3563975 20.45124,22.7020433 -11.33398,5.7379477 -19.90615,3.8122487 -32.35264,3.6012437 -15.0623,-4.0866574 -29.82694,3.271036 -30.19445,21.16634 -0.11608,5.65242 9.14332,19.614389 13.23405,27.542062 -4.40428,11.848412 -24.38199,10.779326 -34.01997,-0.828613 z" id="path20" inkscape:connector-curvature="0" style="display:inline;fill:#f4a8b4;fill-opacity:0.626984;stroke:none;stroke-width:0.264583;stroke-opacity:1"/>
    <path style="font-variation-settings:normal;display:inline;opacity:1;vector-effect:none;fill:none;fill-opacity:1;fill-rule:evenodd;stroke:#aa0000;stroke-width:0.79375;stroke-linecap:butt;stroke-linejoin:miter;stroke-miterlimit:4;stroke-dasharray:none;stroke-dashoffset:0;stroke-opacity:1;stop-color:#000000;stop-opacity:1" d="m 104.45042,45.72563 c 0.85288,2.296266 4.40015,12.932183 5.66719,13.53929 9.19514,10.45423 27.70156,10.40556 33.09169,1.660438 1.4875,-2.413371 -11.30517,-16.533919 -12.79515,-28.053536 -1.30402,-23.8907719 18.93476,-25.4366997 34.18006,-21.172262 20.16617,0.414517 31.77609,-6.7718167 31.85882,-6.4078567" id="path1242" inkscape:connector-curvature="0" sodipodi:nodetypes="ccsccc"/>
    <path sodipodi:nodetypes="cc" inkscape:connector-curvature="0" id="path1258" d="M 167.32479,49.363734 C 168.3645,43.752271 169.36,35.533379 169.938,31.537924" style="font-variation-settings:normal;display:inline;opacity:1;vector-effect:none;fill:#eaceb7;fill-opacity:0.564987;fill-rule:evenodd;stroke:#aa0000;stroke-width:0.79375;stroke-linecap:butt;stroke-linejoin:miter;stroke-miterlimit:4;stroke-dasharray:none;stroke-dashoffset:0;stroke-opacity:1;stop-color:#000000;stop-opacity:1"/>
    
    
    
    <path sodipodi:nodetypes="cccscc" inkscape:connector-curvature="0" id="path5082" d="m 84.350574,145.31599 c 4.704694,6.03284 5.341808,4.51889 8.694084,8.69782 10.976472,9.19308 17.648922,12.14437 29.372952,17.14605 35.66263,8.44894 65.4165,13.99304 79.79933,6.02064 22.66591,-12.56369 -0.15372,-66.8589 -3.92612,-78.635115 -1.31024,-8.35505 -6.08216,-11.45731 -10.31386,-16.789102" style="display:inline;opacity:1;fill:none;fill-rule:evenodd;stroke:#aa0000;stroke-width:0.79375;stroke-linecap:butt;stroke-linejoin:miter;stroke-miterlimit:4;stroke-dasharray:none;stroke-opacity:1"/>
    <path style="font-variation-settings:normal;display:inline;opacity:1;vector-effect:none;fill:none;fill-opacity:1;fill-rule:evenodd;stroke:#aa0000;stroke-width:0.79375;stroke-linecap:butt;stroke-linejoin:miter;stroke-miterlimit:4;stroke-dasharray:none;stroke-dashoffset:0;stroke-opacity:1;stop-color:#000000;stop-opacity:1" d="m 158.8076,39.915273 c 9.3357,-17.257702 24.66329,-4.474721 34.9902,3.542576" id="path5127" inkscape:connector-curvature="0" sodipodi:nodetypes="cc"/>
    
    <path style="font-variation-settings:normal;display:inline;opacity:1;vector-effect:none;fill:none;fill-opacity:1;fill-rule:evenodd;stroke:#aa0000;stroke-width:0.79375;stroke-linecap:butt;stroke-linejoin:miter;stroke-miterlimit:4;stroke-dasharray:none;stroke-dashoffset:0;stroke-opacity:1;stop-color:#000000;stop-opacity:1" d="m 203.64355,32.127539 c -3.84577,-4.790107 -15.56094,-10.463461 -18.28839,-13.189762 3.5564,-1.403385 13.78543,-3.563882 16.05881,-5.230879" id="path1260" inkscape:connector-curvature="0" sodipodi:nodetypes="ccc"/>
    <path style="font-variation-settings:normal;opacity:1;vector-effect:none;fill:#f4a8b4;fill-opacity:0.627451;fill-rule:evenodd;stroke:#aa0000;stroke-width:0.79375;stroke-linecap:butt;stroke-linejoin:miter;stroke-miterlimit:4;stroke-dasharray:none;stroke-dashoffset:0;stroke-opacity:1;stop-color:#000000;stop-opacity:1" d="m 164.77589,47.903438 c 0.97528,-0.119961 5.15639,-3.144112 7.6093,-4.352848 2.00965,-0.517603 3.28903,0.573432 4.52389,2.27967 0.9439,1.304218 2.18165,2.689041 1.59459,4.453032 -1.64184,2.618272 -5.46883,6.976964 -5.41042,7.75271" id="path1764" inkscape:connector-curvature="0" sodipodi:nodetypes="ccscc"/>
    <path sodipodi:nodetypes="ccscc" inkscape:connector-curvature="0" id="path1780" d="m 177.79767,64.045933 c 0.62519,0.761029 5.60361,-1.785436 8.20914,-2.615512 2.06431,-0.212638 3.167,1.056712 4.13407,2.92778 0.73921,1.430211 1.75699,2.983876 0.91385,4.640807 -2.01335,2.344655 -6.17565,5.078918 -5.68233,6.862926" style="font-variation-settings:normal;opacity:1;vector-effect:none;fill:#f4a8b4;fill-opacity:0.627451;fill-rule:evenodd;stroke:#aa0000;stroke-width:0.79375;stroke-linecap:butt;stroke-linejoin:miter;stroke-miterlimit:4;stroke-dasharray:none;stroke-dashoffset:0;stroke-opacity:1;stop-color:#000000;stop-opacity:1"/>
  </g>
  <g sodipodi:insensitive="true" inkscape:groupmode="layer" id="layer2" inkscape:label="Atriums" transform="translate(0.88824391,0.1322915)" style="display:inline">
    <path id="rect981" style="color:#000000;font-variation-settings:normal;overflow:visible;opacity:1;vector-effect:none;fill:#e3d7f4;fill-opacity:0.600529;stroke:#aa0000;stroke-width:0.794;stroke-linecap:butt;stroke-linejoin:miter;stroke-miterlimit:4;stroke-dasharray:none;stroke-dashoffset:0;stroke-opacity:1;stop-color:#000000;stop-opacity:1" d="m 158.93993,39.685313 c -3.34511,13.081156 -2.93036,21.402811 -2.26746,28.471944 -1.75766,13.28304 -29.33651,7.311252 -26.47175,1.995025 l 0.66915,-34.529059" inkscape:connector-curvature="0" sodipodi:nodetypes="cccc"/>
    <g id="g1492" style="display:inline;opacity:1" transform="matrix(0.26458333,0,0,0.26458333,-1.9749769e-5,0)">
      <path sodipodi:nodetypes="sscssccscsscssscs" inkscape:connector-curvature="0" id="path5129" d="m 591.05946,226.13155 c 0.97848,19.20306 -13.91522,16.27291 -22.26924,23.53858 -9.17153,7.97668 -21.40226,13.12676 -17.59246,18.50793 -2.2703,6.5376 4.8262,19.02114 10.4125,21.51476 11.8326,5.28182 33.45684,-18.50166 46.36564,-15.55378 6.5203,1.48899 10.7056,-2.3741 16.3264,-5.05566 2.541,3.28483 33.06283,8.47043 36.77393,6.86218 3.0267,5.23387 11.91554,-0.0415 18.17714,6.49124 11.9649,12.48309 21.4904,25.66422 30.8361,25.4382 0,-2.63969 -3.4953,-12.91138 -10.5306,-22.44465 -5.6448,-7.64904 -16.672,-20.07591 -18.3856,-24.07273 -10.7631,-25.10473 -20.7275,-38.97238 -26.2628,-38.42315 -0.2522,-4.21932 -3.62926,-12.62463 -7.67496,-15.76786 -7.179,-5.5776 -12.26884,-16.9054 -15.15694,-19.65517 -6.3589,-6.05445 -11.2682,-5.61187 -14.1227,-9.85592 -7.3576,-10.93929 -9.64566,-25.41829 -16.86046,-26.91421 -6.91641,8.23858 -10.38328,68.57369 -10.03595,75.39024 z" style="font-variation-settings:normal;opacity:1;vector-effect:none;fill:#eaceb7;fill-opacity:0.564987;fill-rule:evenodd;stroke:#aa0000;stroke-width:3;stroke-linecap:butt;stroke-linejoin:miter;stroke-miterlimit:4;stroke-dasharray:none;stroke-dashoffset:0;stroke-opacity:1;stop-color:#000000;stop-opacity:1"/>
    </g>
    <g id="g1485" transform="matrix(0.26283403,0,0,0.39592189,0.62765025,-21.56583)" style="display:inline;opacity:1">
      <path style="font-variation-settings:normal;vector-effect:none;fill:#eaceb7;fill-opacity:0.564987;fill-rule:evenodd;stroke:#aa0000;stroke-width:3;stroke-linecap:butt;stroke-linejoin:miter;stroke-miterlimit:4;stroke-dasharray:none;stroke-dashoffset:0;stroke-opacity:1;stop-color:#000000" d="m 372.63832,168.29141 c -8.25306,28.9519 -50.45162,62.75087 -50.45162,62.75087 -0.63977,-2.16836 -28.7215,31.91032 -31.76322,58.67606 -7.38721,6.46854 -8.44998,29.27377 -7.65183,38.72587 -22.87638,43.09192 19.22413,96.66427 35.939,92.94139 11.35367,-16.03473 25.67039,-65.21335 19.14867,-68.62847 10.31684,-5.26669 13.19047,-6.42498 22.79519,-22.00018 14.18913,-24.6673 5.29002,-24.53516 6.40932,-31.06767 10.62714,-36.78912 109.68355,-74.80251 93.3507,-76.93153 -12.30138,-1.88677 -62.16785,-16.12684 -65.67725,-53.51211 -8.4148,-5.75584 -13.43211,5.93644 -19.27054,8.76849 z" id="path5100" inkscape:connector-curvature="0" sodipodi:nodetypes="cccccccccccc"/>
    </g>
    
  </g>
  
  
  
</svg>